<svg xmlns="http://www.w3.org/2000/svg" viewBox="0 0 32 32" fill="none">
  <path fill="currentColor" d="M9 3.5c-2.2 1.9-3 5.4-2.2 9.1A9.3 9.3 0 0 0 4 19.2c0 2.1.7 4 1.9 5.5A9.8 9.8 0 0 0 5 28h4.2c-.2-1.1-.1-2.2.3-3.2.5-1.2.3-2.5-.5-3.5a4.5 4.5 0 0 1-.9-2.8c0-2.9 2.5-5.3 5.6-5.3h4.6c3.1 0 5.6 2.4 5.6 5.3 0 1-.3 2-.9 2.8-.8 1-.9 2.3-.5 3.5.4 1 .5 2.1.3 3.2H27a9.8 9.8 0 0 0-.9-3.3 8.7 8.7 0 0 0 1.9-5.5 9.3 9.3 0 0 0-2.8-6.6c.8-3.7 0-7.2-2.2-9.1-1.8 1.4-2.8 3.8-2.8 6.4A10.5 10.5 0 0 0 16 9a10.5 10.5 0 0 0-4.2.9c0-2.6-1-5-2.8-6.4Z"/>
  <path fill="currentColor" d="M12.2 18.2a1.4 1.4 0 1 0 0-2.8 1.4 1.4 0 0 0 0 2.8Zm7.6 0a1.4 1.4 0 1 0 0-2.8 1.4 1.4 0 0 0 0 2.8ZM16 23.3c2.2 0 4-1.2 4-2.7s-1.8-2.7-4-2.7-4 1.2-4 2.7 1.8 2.7 4 2.7Z"/>
</svg>
